<svg width="28" height="28" viewBox="0 0 28 28" fill="none" xmlns="http://www.w3.org/2000/svg">
<mask id="mask0_5039_89839" style="mask-type:alpha" maskUnits="userSpaceOnUse" x="5" y="1" width="18" height="26">
<path fill-rule="evenodd" clip-rule="evenodd" d="M17.5003 26.25H20.4171C21.7057 26.25 22.7504 25.2053 22.7504 23.9167V4.08333C22.7504 2.79467 21.7057 1.75 20.4171 1.75H17.5003C18.789 1.75 19.8337 2.79467 19.8337 4.08333V23.9167C19.8337 25.2053 18.789 26.25 17.5003 26.25ZM16.3337 1.75H8.16699L8.80184 3.65453C9.11944 4.60733 10.0111 5.25 11.0154 5.25H13.4852C14.4896 5.25 15.3812 4.60733 15.6988 3.65453L16.3337 1.75ZM8.75033 23.2167C8.75033 22.6368 9.22043 22.1667 9.80033 22.1667H14.7003C15.2802 22.1667 15.7503 22.6368 15.7503 23.2167C15.7503 23.7966 15.2802 24.2667 14.7003 24.2667H9.80033C9.22043 24.2667 8.75033 23.7966 8.75033 23.2167Z" fill="black"/>
<path fill-rule="evenodd" clip-rule="evenodd" d="M5.25 4.08333C5.25 2.79467 6.29467 1.75 7.58333 1.75H8.16667L8.80151 3.65453C9.11911 4.60733 10.0108 5.25 11.0151 5.25H13.4849C14.4892 5.25 15.3809 4.60733 15.6985 3.65453L16.3333 1.75H17.5C18.7887 1.75 19.8333 2.79467 19.8333 4.08333V23.9167C19.8333 25.2053 18.7887 26.25 17.5 26.25H5.25V4.08333ZM9.8 22.1667C9.2201 22.1667 8.75 22.6368 8.75 23.2167C8.75 23.7966 9.2201 24.2667 9.8 24.2667H14.7C15.2799 24.2667 15.75 23.7966 15.75 23.2167C15.75 22.6368 15.2799 22.1667 14.7 22.1667H9.8Z" fill="url(#paint0_linear_5039_89839)"/>
</mask>
<g mask="url(#mask0_5039_89839)">
<path d="M0 0H28V28H0V0Z" fill="#428BF9"/>
</g>
<defs>
<linearGradient id="paint0_linear_5039_89839" x1="3.5" y1="5.25" x2="19.7921" y2="15.1813" gradientUnits="userSpaceOnUse">
<stop stop-opacity="0.65"/>
<stop offset="1" stop-opacity="0.3"/>
</linearGradient>
</defs>
</svg>
