<svg width="28" height="28" viewBox="0 0 28 28" fill="none" xmlns="http://www.w3.org/2000/svg">
<mask id="mask0_5039_89825" style="mask-type:alpha" maskUnits="userSpaceOnUse" x="2" y="2" width="24" height="24">
<path d="M7.05851 2.79199L10.6923 6.96222C11.5485 7.94475 11.4339 9.43811 10.4378 10.2785L9.53332 11.0416C9.53332 11.0416 10.4999 12.833 12.8332 15.1663C15.1665 17.4997 16.9579 18.4662 16.9579 18.4662L17.721 17.5617C18.5614 16.5657 20.0548 16.4511 21.0373 17.3072L25.2075 20.9411L22.1883 23.9603C20.1343 26.0143 16.8799 26.2457 14.6245 24.4151C12.6839 22.84 10.4159 20.9157 8.74987 19.2497C7.08383 17.5836 5.15956 15.3156 3.58445 13.375C1.75379 11.1196 1.98522 7.86521 4.03928 5.81118L7.05851 2.79199Z" fill="black"/>
</mask>
<g mask="url(#mask0_5039_89825)">
<path d="M0 0H28V28H0V0Z" fill="#428BF9"/>
</g>
</svg>
